<?xml version="1.0" encoding="UTF-8"?>
<svg width="70px" height="90px" viewBox="0 0 70 90" version="1.1" xmlns="http://www.w3.org/2000/svg" xmlns:xlink="http://www.w3.org/1999/xlink">
    <!-- Generator: Sketch 55.2 (78181) - https://sketchapp.com -->
    <title>KS-logo</title>
    <desc>Created with Sketch.</desc>
    <defs>
        <linearGradient x1="50%" y1="0%" x2="50%" y2="100%" id="linearGradient-1">
            <stop stop-color="#44464A" offset="0%"></stop>
            <stop stop-color="#14120D" offset="100%"></stop>
        </linearGradient>
        <rect id="path-2" x="0" y="0" width="62.9111842" height="54.3986535"></rect>
        <linearGradient x1="47.7610749%" y1="7.63867147%" x2="50%" y2="100%" id="linearGradient-4">
            <stop stop-color="#FFFFFF" stop-opacity="0.996667395" offset="0%"></stop>
            <stop stop-color="#D8D8D8" offset="100%"></stop>
        </linearGradient>
        <path d="M22.4501312,-6.04726252 L29.4892615,-8.24222023 L33.2906922,-8.24222023 L59.0482168,-3.69296876 L59.0482168,18.5202638 L30.7514324,4.28269444 L17.7509021,10.604344 L59.0482168,31.3000716 L59.0482168,34.3418422 L59.0482168,40.981439 L31.4555921,54.3986535 L4.41481994,40.906305 L4.41481994,27.5138709 L31.4555921,41.0062194 L31.4555921,41.080797 L41.3366054,36.1779904 L4.41481994,17.6750146 L4.41481994,17.0891593 L4.41481994,-2.96765203 L22.4501312,-6.04726252 Z" id="path-5"></path>
        <filter x="-13.7%" y="-7.2%" width="127.5%" height="123.9%" filterUnits="objectBoundingBox" id="filter-6">
            <feOffset dx="0" dy="3" in="SourceAlpha" result="shadowOffsetOuter1"></feOffset>
            <feGaussianBlur stdDeviation="2" in="shadowOffsetOuter1" result="shadowBlurOuter1"></feGaussianBlur>
            <feColorMatrix values="0 0 0 0 0   0 0 0 0 0   0 0 0 0 0  0 0 0 0.850060096 0" type="matrix" in="shadowBlurOuter1"></feColorMatrix>
        </filter>
    </defs>
    <g id="LOgo" stroke="none" stroke-width="1" fill="none" fill-rule="evenodd">
        <g id="KingSpeed-LP" transform="translate(-138.000000, -38.000000)">
            <g id="KS-logo" transform="translate(138.000000, 38.000000)">
                <polygon id="Rectangle-Copy-10" fill="#141515" points="0.686303828 0.252349532 69.5878495 0.252349532 69.5878495 16.8975108 0.686303828 16.8975108"></polygon>
                <g id="Group-5-Copy-7" transform="translate(3.660287, 20.113053)">
                    <path d="M31.1455795,67.4087751 L-1.53441913,50.7044332 L-1.53441913,-1.53441913 L64.4456033,-1.53441913 L64.4456033,50.7126482 L31.1455795,67.4087751 Z" id="Path-9-Copy" stroke="#C3FB12" stroke-width="3.06883825" fill="url(#linearGradient-1)"></path>
                    <g id="Group-Copy" transform="translate(0.000000, 4.618754)">
                        <mask id="mask-3" fill="white">
                            <use xlink:href="#path-2"></use>
                        </mask>
                        <g id="Rectangle" transform="translate(31.455592, 27.199327) scale(1, -1) translate(-31.455592, -27.199327) "></g>
                        <g id="Combined-Shape" mask="url(#mask-3)">
                            <use fill="black" fill-opacity="1" filter="url(#filter-6)" xlink:href="#path-5"></use>
                            <use fill="url(#linearGradient-4)" fill-rule="evenodd" xlink:href="#path-5"></use>
                        </g>
                    </g>
                </g>
                <g id="KINGSPEED" transform="translate(1.842105, 4.623656)" fill-rule="nonzero">
                    <path d="M1.37823698,8.50881185 L0.273046949,8.50881185 C0.0910147394,8.50881185 -1.77635684e-14,8.41618185 -1.77635684e-14,8.23091908 L-1.77635684e-14,0.277892766 C-1.77635684e-14,0.0926299958 0.0910147394,8.8817842e-15 0.273046949,8.8817842e-15 L1.37823698,8.8817842e-15 C1.56026919,8.8817842e-15 1.65128393,0.0926299958 1.65128393,0.277892766 L1.65128393,4.0492946 L1.6772884,4.0492946 C1.746634,3.83756572 1.88098909,3.56408668 2.0803577,3.22884929 L4.05669752,0.277892766 C4.16938413,0.0926299958 4.3384115,8.8817842e-15 4.56378471,8.8817842e-15 L5.83800381,8.8817842e-15 C5.93335401,8.8817842e-15 5.99186349,0.0286711892 6.01353399,0.0860144277 C6.03520449,0.143357666 6.0113673,0.216138377 5.94202169,0.304358744 L3.47159692,3.78463482 L6.22807088,8.17798713 C6.28874828,8.28385157 6.29958337,8.36545418 6.26057647,8.42279742 C6.22156956,8.48014066 6.14138991,8.50881185 6.02003511,8.50881185 L5.0708719,8.50881185 C4.76748489,8.50881185 4.56378523,8.41618185 4.45976683,8.23091908 L2.47042477,4.98883681 L1.65128393,5.96807798 L1.65128393,8.23091908 C1.65128393,8.41618185 1.56026919,8.50881185 1.37823698,8.50881185 Z M10.1283943,0.277892766 L10.1283943,8.23091908 C10.1283943,8.41618185 10.0373795,8.50881185 9.85534734,8.50881185 L8.7501573,8.50881185 C8.5681251,8.50881185 8.47711036,8.41618185 8.47711036,8.23091908 L8.47711036,0.277892766 C8.47711036,0.0926299958 8.5681251,8.8817842e-15 8.7501573,8.8817842e-15 L9.85534734,8.8817842e-15 C10.0373795,8.8817842e-15 10.1283943,0.0926299958 10.1283943,0.277892766 Z M14.3927803,8.50881185 L13.3135947,8.50881185 C13.1315625,8.50881185 13.0405478,8.41618185 13.0405478,8.23091908 L13.0405478,0.277892766 C13.0405478,0.0926299958 13.1315625,8.8817842e-15 13.3135947,8.8817842e-15 L14.2887624,8.8817842e-15 C14.4707946,8.8817842e-15 14.5921476,0.0617533306 14.652825,0.185261844 L17.2792766,5.20056463 L17.3312855,5.20056463 L17.3312855,0.277892766 C17.3312855,0.0926299958 17.4223003,8.8817842e-15 17.6043325,8.8817842e-15 L18.6835181,8.8817842e-15 C18.8655503,8.8817842e-15 18.956565,0.0926299958 18.956565,0.277892766 L18.956565,8.23091908 C18.956565,8.41618185 18.8655503,8.50881185 18.6835181,8.50881185 L17.7343549,8.50881185 C17.5436544,8.50881185 17.4049653,8.42059281 17.3182833,8.24415207 L14.7178362,3.32148021 L14.6658272,3.32148021 L14.6658272,8.23091908 C14.6658272,8.41618185 14.5748125,8.50881185 14.3927803,8.50881185 Z M25.1972908,8.50881185 L23.8190538,8.50881185 C23.134266,8.50881185 22.6055137,8.32355186 22.2327811,7.95302632 C21.8600485,7.58250077 21.673685,7.04877556 21.673685,6.35183466 L21.673685,2.15697719 C21.673685,1.46003629 21.8600485,0.926311074 22.2327811,0.555785533 C22.6055137,0.185259992 23.134266,8.8817842e-15 23.8190538,8.8817842e-15 L25.1972908,8.8817842e-15 C25.8734105,8.8817842e-15 26.3978287,0.187465468 26.7705613,0.562402027 C27.143294,0.937338587 27.3296575,1.46885832 27.3296575,2.15697719 L27.3296575,2.55396685 C27.3296575,2.74805166 27.2386427,2.84509261 27.0566105,2.84509261 L25.9514205,2.84509261 C25.7693883,2.84509261 25.6783735,2.74805166 25.6783735,2.55396685 L25.6783735,2.23637512 C25.6783735,1.95406995 25.6220311,1.75337162 25.5093445,1.63427413 C25.3966579,1.51517663 25.2016263,1.45562878 24.9242439,1.45562878 L24.0790986,1.45562878 C23.8103843,1.45562878 23.6175198,1.51517663 23.5004991,1.63427413 C23.3834784,1.75337162 23.3249689,1.95406995 23.3249689,2.23637512 L23.3249689,6.27243673 C23.3249689,6.5547419 23.3834784,6.75544023 23.5004991,6.87453772 C23.6175198,6.99363522 23.8103843,7.05318307 24.0790986,7.05318307 L24.9242439,7.05318307 C25.2016263,7.05318307 25.3966579,6.99363522 25.5093445,6.87453772 C25.6220311,6.75544023 25.6783735,6.5547419 25.6783735,6.27243673 L25.6783735,5.43875843 C25.6783735,5.34171603 25.6306992,5.29319555 25.535349,5.29319555 L24.7552148,5.29319555 C24.5731826,5.29319555 24.4821679,5.20056556 24.4821679,5.01530278 L24.4821679,4.11545954 C24.4821679,3.93019677 24.5731826,3.83756677 24.7552148,3.83756677 L27.0306061,3.83756677 C27.2299747,3.83756677 27.3296575,3.93901867 27.3296575,4.14192552 L27.3296575,6.35183466 C27.3296575,7.03995352 27.143294,7.57147326 26.7705613,7.94640982 C26.3978287,8.32134638 25.8734105,8.50881185 25.1972908,8.50881185 Z" id="KING" fill="#C3FB12"></path>
                    <path d="M29.8387417,6.33860167 L29.8387417,6.0739419 C29.8387417,5.88867912 29.9297564,5.79604913 30.1117886,5.79604913 L31.2169786,5.79604913 C31.3990109,5.79604913 31.4900256,5.88867912 31.4900256,6.0739419 L31.4900256,6.17980581 C31.4900256,6.5150432 31.5550361,6.74441271 31.6850591,6.86792123 C31.8150821,6.99142974 32.0534541,7.05318307 32.4001821,7.05318307 L33.0112872,7.05318307 C33.349347,7.05318307 33.5855519,6.98701879 33.719909,6.85468824 C33.8542661,6.72235769 33.9214437,6.47534437 33.9214437,6.11364086 L33.9214437,5.954845 C33.9214437,5.69900593 33.8195938,5.50271856 33.6158911,5.36597699 C33.4121884,5.22923542 33.1586474,5.14763281 32.8552603,5.1211667 C32.5518733,5.09470059 32.2246537,5.04397464 31.8735915,4.96898732 C31.5225294,4.89400001 31.1953098,4.79695906 30.8919228,4.67786157 C30.5885357,4.55876407 30.3349947,4.32498361 30.131292,3.97651316 C29.9275893,3.62804271 29.8257394,3.18033106 29.8257394,2.63336479 L29.8257394,2.17021018 C29.8257394,1.48209131 30.016437,0.9483661 30.3978378,0.569018522 C30.7792386,0.189670944 31.3079909,8.8817842e-15 31.9841105,8.8817842e-15 L33.2843341,8.8817842e-15 C33.9691219,8.8817842e-15 34.5022083,0.189670944 34.8836091,0.569018522 C35.2650099,0.9483661 35.4557075,1.48209131 35.4557075,2.17021018 L35.4557075,2.42163696 C35.4557075,2.60689974 35.3646927,2.69952973 35.1826605,2.69952973 L34.0774705,2.69952973 C33.8954383,2.69952973 33.8044235,2.60689974 33.8044235,2.42163696 L33.8044235,2.34223903 C33.8044235,1.9981796 33.739413,1.76439913 33.60939,1.64089062 C33.479367,1.51738211 33.2409951,1.45562878 32.894267,1.45562878 L32.3871799,1.45562878 C32.0317836,1.45562878 31.7912447,1.52399854 31.6655558,1.6607401 C31.5398669,1.79748167 31.4770234,2.06434428 31.4770234,2.46133593 L31.4770234,2.71276272 C31.4770234,3.12739844 31.8324142,3.36558986 32.5432067,3.42734412 C33.2800037,3.48909838 33.934443,3.63907075 34.5065443,3.87726574 C34.8099313,4.00959629 35.0634723,4.24558223 35.267175,4.58523065 C35.4708778,4.92487906 35.5727276,5.35935785 35.5727276,5.88868005 L35.5727276,6.33860167 C35.5727276,7.02672054 35.38203,7.56044575 35.0006292,7.93979333 C34.6192284,8.3191409 34.0904761,8.50881185 33.4143565,8.50881185 L31.9971128,8.50881185 C31.3209931,8.50881185 30.7922409,8.3191409 30.41084,7.93979333 C30.0294392,7.56044575 29.8387417,7.02672054 29.8387417,6.33860167 Z M39.5900711,8.50881185 L38.4848811,8.50881185 C38.3028489,8.50881185 38.2118341,8.41618185 38.2118341,8.23091908 L38.2118341,0.277892766 C38.2118341,0.0926299958 38.3028489,8.8817842e-15 38.4848811,8.8817842e-15 L41.6574266,8.8817842e-15 C42.3335462,8.8817842e-15 42.8579645,0.187465468 43.2306971,0.562402027 C43.6034297,0.937338587 43.7897932,1.46885832 43.7897932,2.15697719 L43.7897932,3.42734412 C43.7897932,4.11546298 43.6034297,4.64698272 43.2306971,5.02191928 C42.8579645,5.39685584 42.3335462,5.58432131 41.6574266,5.58432131 L40.0191449,5.58432131 C39.9151265,5.58432131 39.8631181,5.63284178 39.8631181,5.72988418 L39.8631181,8.23091908 C39.8631181,8.41618185 39.7721033,8.50881185 39.5900711,8.50881185 Z M40.0061427,4.11545954 L41.3843796,4.11545954 C41.661762,4.11545954 41.8567936,4.05591169 41.9694802,3.93681419 C42.0821668,3.8177167 42.1385093,3.62142932 42.1385093,3.34794619 L42.1385093,2.23637512 C42.1385093,1.95406995 42.0821668,1.75337162 41.9694802,1.63427413 C41.8567936,1.51517663 41.661762,1.45562878 41.3843796,1.45562878 L40.0061427,1.45562878 C39.9107925,1.45562878 39.8631181,1.50414925 39.8631181,1.60119165 L39.8631181,3.96989666 C39.8631181,4.06693907 39.9107925,4.11545954 40.0061427,4.11545954 Z M50.7846487,8.50881185 L46.5329177,8.50881185 C46.3508855,8.50881185 46.2598707,8.41618185 46.2598707,8.23091908 L46.2598707,0.277892766 C46.2598707,0.0926299958 46.3508855,8.8817842e-15 46.5329177,8.8817842e-15 L50.7846487,8.8817842e-15 C50.9580127,8.8817842e-15 51.0446934,0.0926299958 51.0446934,0.277892766 L51.0446934,1.17773601 C51.0446934,1.36299878 50.9580127,1.45562878 50.7846487,1.45562878 L48.0671815,1.45562878 C47.9631631,1.45562878 47.9111546,1.50414925 47.9111546,1.60119165 L47.9111546,3.32148021 C47.9111546,3.41852261 47.9631631,3.46704309 48.0671815,3.46704309 L50.2905638,3.46704309 C50.472596,3.46704309 50.5636107,3.55967308 50.5636107,3.74493585 L50.5636107,4.6447791 C50.5636107,4.83004187 50.472596,4.92267186 50.2905638,4.92267186 L48.0671815,4.92267186 C47.9631631,4.92267186 47.9111546,4.97119234 47.9111546,5.06823474 L47.9111546,6.90762019 C47.9111546,7.0046626 47.9631631,7.05318307 48.0671815,7.05318307 L50.7846487,7.05318307 C50.9580127,7.05318307 51.0446934,7.14581307 51.0446934,7.33107584 L51.0446934,8.23091908 C51.0446934,8.41618185 50.9580127,8.50881185 50.7846487,8.50881185 Z M58.1695713,8.50881185 L53.9178402,8.50881185 C53.735808,8.50881185 53.6447933,8.41618185 53.6447933,8.23091908 L53.6447933,0.277892766 C53.6447933,0.0926299958 53.735808,8.8817842e-15 53.9178402,8.8817842e-15 L58.1695713,8.8817842e-15 C58.3429353,8.8817842e-15 58.429616,0.0926299958 58.429616,0.277892766 L58.429616,1.17773601 C58.429616,1.36299878 58.3429353,1.45562878 58.1695713,1.45562878 L55.452104,1.45562878 C55.3480856,1.45562878 55.2960772,1.50414925 55.2960772,1.60119165 L55.2960772,3.32148021 C55.2960772,3.41852261 55.3480856,3.46704309 55.452104,3.46704309 L57.6754863,3.46704309 C57.8575185,3.46704309 57.9485333,3.55967308 57.9485333,3.74493585 L57.9485333,4.6447791 C57.9485333,4.83004187 57.8575185,4.92267186 57.6754863,4.92267186 L55.452104,4.92267186 C55.3480856,4.92267186 55.2960772,4.97119234 55.2960772,5.06823474 L55.2960772,6.90762019 C55.2960772,7.0046626 55.3480856,7.05318307 55.452104,7.05318307 L58.1695713,7.05318307 C58.3429353,7.05318307 58.429616,7.14581307 58.429616,7.33107584 L58.429616,8.23091908 C58.429616,8.41618185 58.3429353,8.50881185 58.1695713,8.50881185 Z M62.8240244,7.05318307 L64.241268,7.05318307 C64.5186505,7.05318307 64.7158491,6.99363522 64.8328698,6.87453772 C64.9498905,6.75544023 65.0083999,6.5547419 65.0083999,6.27243673 L65.0083999,2.23637512 C65.0083999,1.95406995 64.9498905,1.75337162 64.8328698,1.63427413 C64.7158491,1.51517663 64.5186505,1.45562878 64.241268,1.45562878 L62.8240244,1.45562878 C62.7286742,1.45562878 62.6809998,1.50414925 62.6809998,1.60119165 L62.6809998,6.90762019 C62.6809998,7.0046626 62.7286742,7.05318307 62.8240244,7.05318307 Z M61.0297158,8.23091908 L61.0297158,0.277892766 C61.0297158,0.0926299958 61.1207306,8.8817842e-15 61.3027628,8.8817842e-15 L64.514315,8.8817842e-15 C65.1904346,8.8817842e-15 65.7170199,0.187465468 66.0940866,0.562402027 C66.4711533,0.937338587 66.6596839,1.46885832 66.6596839,2.15697719 L66.6596839,6.35183466 C66.6596839,7.03995352 66.4711533,7.57147326 66.0940866,7.94640982 C65.7170199,8.32134638 65.1904346,8.50881185 64.514315,8.50881185 L61.3027628,8.50881185 C61.1207306,8.50881185 61.0297158,8.41618185 61.0297158,8.23091908 Z" id="SPEED" fill="#FFFFFF"></path>
                </g>
            </g>
        </g>
    </g>
</svg>