<?xml version="1.0" encoding="UTF-8"?>
<svg width="217px" height="274px" viewBox="0 0 217 274" version="1.1" xmlns="http://www.w3.org/2000/svg" xmlns:xlink="http://www.w3.org/1999/xlink">
    <!-- Generator: Sketch 55.2 (78181) - https://sketchapp.com -->
    <title>Group-5-Copy-4</title>
    <desc>Created with Sketch.</desc>
    <defs>
        <linearGradient x1="50%" y1="0%" x2="50%" y2="100%" id="linearGradient-1">
            <stop stop-color="#44464A" offset="0%"></stop>
            <stop stop-color="#14120D" offset="100%"></stop>
        </linearGradient>
        <polygon id="path-2" points="0 -0.000199352001 59.5338675 -0.000199352001 59.5338675 32.4120438 0 32.4120438"></polygon>
        <rect id="path-4" x="0" y="0" width="195.205479" height="169.520548"></rect>
        <linearGradient x1="48.310417%" y1="7.63867147%" x2="50%" y2="100%" id="linearGradient-6">
            <stop stop-color="#FFFFFF" stop-opacity="0.996667395" offset="0%"></stop>
            <stop stop-color="#D8D8D8" offset="100%"></stop>
        </linearGradient>
        <linearGradient x1="47.7802736%" y1="7.63867147%" x2="50%" y2="100%" id="linearGradient-7">
            <stop stop-color="#FFFFFF" stop-opacity="0.996667395" offset="0%"></stop>
            <stop stop-color="#D8D8D8" offset="100%"></stop>
        </linearGradient>
    </defs>
    <g id="Page-1" stroke="none" stroke-width="1" fill="none" fill-rule="evenodd">
        <g id="Group-5-Copy-4" transform="translate(5.000000, 0.150685)">
            <g id="Group-5-Copy-3">
                <polygon id="Path-9-Copy" stroke="#C3FB12" stroke-width="10.2739726" fill="url(#linearGradient-1)" fill-rule="nonzero" points="102.639178 267.743699 0.8630137 215.735582 0.8630137 53.0821918 206.342466 53.0821918 206.342466 215.763082"></polygon>
                <g id="Group-3-Copy-2" transform="translate(72.780822, 0.000000)">
                    <g id="Fill-1-Clipped">
                        <mask id="mask-3" fill="white">
                            <use xlink:href="#path-2"></use>
                        </mask>
                        <g id="path-2"></g>
                        <path d="M54.9637386,7.2279055 C54.1313321,7.69239567 53.9296564,8.09708023 54.4733899,8.85860487 C54.9795563,9.568298 54.9321032,10.3078939 54.1688991,10.6487858 C53.7853199,10.818235 53.0161843,10.5790126 52.6642404,10.2560624 C51.2940322,8.99017719 50.3627651,8.94831327 49.4473158,10.6009414 C49.1210757,11.1890298 49.5086093,12.2515759 49.7458748,13.0430034 C49.8229861,13.2981739 50.4438308,13.4576555 50.8392733,13.5334093 C51.4620953,13.651027 52.5772431,13.5074935 52.6543544,13.7447224 C52.9153464,14.5620656 53.1110905,15.6206247 52.7986909,16.3642077 C52.0710767,18.1085377 49.9594138,18.5929631 48.221444,17.638067 C46.5032464,16.6971256 45.55023,14.4205257 46.5764033,12.9891783 C47.895204,11.1451723 47.7449358,9.56630448 46.4973148,7.85187727 C46.0682597,7.26578238 45.718293,7.1980027 45.10338,7.56082334 C42.9561272,8.83069559 42.5646392,9.57029152 43.2843445,12.0582045 C43.7292173,13.605176 43.3693646,14.747463 42.1553562,15.6864109 C40.348184,17.085862 36.3581692,17.1835444 34.5035439,15.8837694 C33.3389658,15.0684197 32.8426854,13.5593251 33.4101454,12.5466169 C34.1338052,11.2508289 35.4387654,10.8959823 36.9078343,11.5937143 C39.0531098,12.6124031 39.1045173,12.5984484 40.4964749,10.6447988 C41.2458384,9.59222024 40.9630971,8.83468263 39.5138003,7.28571758 C38.6813939,6.39860118 38.1851135,7.0385211 37.4792487,7.42327046 C36.5242551,7.94557271 35.500059,8.43996567 34.4501592,8.64131119 C34.0052864,8.72703255 33.1194952,8.13097007 32.9751587,7.67246047 C32.828845,7.2079703 33.2361507,6.43448454 33.6137983,5.9719879 C34.0903065,5.38589301 34.7843081,4.97921493 35.3873579,4.49279605 C33.7087045,2.99167548 32.1783421,1.60019851 30.614367,0.246598425 C30.4087369,0.0691751444 29.9085021,-0.0743582964 29.7661428,0.0412658642 C28.0637629,1.41679467 26.4009272,2.844155 24.6095727,4.35723669 C25.2422807,4.85761021 25.7029712,5.24634661 26.1873883,5.60318669 C26.9505923,6.15937878 27.6960014,6.77338294 27.0652706,7.81001335 C26.4839701,8.77088999 25.4795462,8.82272151 24.5542108,8.46588143 C23.868118,8.20074327 23.2433189,7.72628551 22.6639957,7.25382126 C22.0708319,6.77138942 21.5963009,6.75344774 21.1000206,7.33954262 C20.7975071,7.70036975 20.4633582,8.03727463 20.1766624,8.41205639 C19.1801473,9.71581848 19.3244838,10.1862892 20.7935527,11.7830987 C21.7109792,12.7778652 22.4227757,12.558578 23.2848404,11.7492089 C24.1212012,10.959775 25.2442579,10.4394662 26.2249553,11.163114 C26.8655721,11.6375718 27.2985817,12.6462929 27.4547815,13.4875583 C27.692047,14.7733787 26.6836686,15.4412079 25.6614498,15.8957305 C23.5913083,16.8167368 21.4499872,16.844646 19.3244838,16.142927 C16.7086317,15.2797328 16.0304478,13.954042 16.692814,11.2448483 C16.7798113,10.8760471 16.94392,10.5132265 16.9636921,10.1424318 C17.0447578,8.70311031 15.8683164,8.21469791 14.8935506,7.79406519 C14.5079942,7.62860303 13.6558156,8.14093767 13.230715,8.56356391 C11.7675777,10.0148465 12.821432,11.3943623 13.4462311,12.8117551 C14.3162046,14.7833463 14.0176455,16.1209983 12.6553461,16.9483091 C10.8699233,18.032784 8.27186609,17.783594 7.2437156,16.2904475 C6.89968063,15.7920675 6.74348085,14.8949835 6.95701979,14.3647071 C7.10926515,13.9839448 8.05634993,13.6570075 8.57635681,13.7467159 C10.2846684,14.0397634 10.3321215,12.6243642 10.7809487,11.7033579 C11.3998162,10.4414598 10.0909016,10.2879587 9.49378339,9.76166944 C8.62183269,8.99017719 8.06623599,9.51247944 7.39596096,10.2141985 C7.01238174,10.614896 6.08111467,10.9577814 5.66590005,10.7584294 C4.67927103,10.2779911 5.40886243,9.5882332 5.79441886,9.03004759 C6.20172463,8.44594623 6.57344058,7.89174767 5.67974054,7.40333526 C3.83895573,6.4005947 2.00410256,5.38988005 -0.000790884988,4.29145053 L7.16264989,32.4120438 L52.2608891,32.4120438 L59.3294237,5.06094925 C59.3926945,4.81773981 59.4539881,4.56057573 59.5350538,4.26752829 C57.8722181,5.35997725 56.4703745,6.38863358 54.9637386,7.2279055" id="Fill-1" fill="#C3FB12" fill-rule="nonzero" mask="url(#mask-3)"></path>
                    </g>
                </g>
                <g id="Group-Copy" transform="translate(6.000000, 71.917808)">
                    <g id="Combined-Shape-Clipped">
                        <mask id="mask-5" fill="white">
                            <use xlink:href="#path-4"></use>
                        </mask>
                        <g id="path-4"></g>
                        <g id="Combined-Shape" mask="url(#mask-5)">
                            <g transform="translate(13.000000, -26.000000)" id="path-7-link">
                                <g>
                                    <polygon id="path-7" fill="#000000" fill-rule="nonzero" points="56.6599289 7.1551355 78.5014636 0.3150685 90.296824 0.3150685 170.219178 14.4917356 170.219178 83.7140255 82.4178208 39.3460051 42.0788132 59.0459319 170.219178 123.539276 170.219178 133.018235 170.219178 153.70897 84.6027397 195.520548 0.6986301 153.474832 0.6986301 111.740477 84.6027397 153.786192 84.6027397 154.018595 115.262279 138.740157 0.6986301 81.0800059 0.6986301 79.2543264 0.6986301 16.7520138"></polygon>
                                </g>
                                <g>
                                    <polygon id="path-7" fill="url(#linearGradient-7)" points="56.6599289 7.1551355 78.5014636 0.3150685 90.296824 0.3150685 170.219178 14.4917356 170.219178 83.7140255 82.4178208 39.3460051 42.0788132 59.0459319 170.219178 123.539276 170.219178 133.018235 170.219178 153.70897 84.6027397 195.520548 0.6986301 153.474832 0.6986301 111.740477 84.6027397 153.786192 84.6027397 154.018595 115.262279 138.740157 0.6986301 81.0800059 0.6986301 79.2543264 0.6986301 16.7520138"></polygon>
                                </g>
                            </g>
                        </g>
                    </g>
                </g>
            </g>
        </g>
    </g>
</svg>